<svg version="1.2" xmlns="http://www.w3.org/2000/svg" viewBox="0 0 22 23" width="22" height="23"><defs><clipPath clipPathUnits="userSpaceOnUse" id="cp1"><path d="m-335-1681h1920v5706h-1920z"/></clipPath></defs><style>.a{fill:#364a61}.b{fill:#fff}</style><g clip-path="url(#cp1)"><path class="a" d="m10.9 22c-5.8 0-10.5-4.7-10.5-10.5 0-5.9 4.7-10.6 10.5-10.6 5.9 0 10.6 4.7 10.6 10.6 0 5.8-4.7 10.5-10.6 10.5z"/><path class="b" d="m15.9 9l0.2-0.2 0.2 0.2c0.1 0 0.2 0 0.2 0l0.3-0.4c0 0 0-0.1-0.1-0.2l-0.9-0.7c-0.1 0-0.2 0-0.2 0.1l-0.3 0.3c0 0.1 0 0.2 0 0.2l0.3 0.2-0.2 0.2q-1-0.6-2.2-0.7v-0.6h0.5c0.1 0 0.2-0.1 0.2-0.2v-0.7c0-0.1-0.1-0.2-0.2-0.2h-1.9c-0.1 0-0.2 0.1-0.2 0.2v0.7c0 0.1 0.1 0.2 0.2 0.2h0.5v0.6c-1 0.1-1.9 0.5-2.7 1-0.1 0.1-0.1 0.2-0.1 0.3q0.1 0.1 0.2 0.1 0.1 0.1 0.2 0c0.8-0.6 1.8-0.9 2.8-0.9 2.7 0 4.9 2.1 4.9 4.8 0 2.7-2.2 4.9-4.9 4.9-1.4 0-2.8-0.7-3.7-1.8q-0.1-0.1-0.2-0.1-0.1 0-0.2 0.1c-0.1 0.1-0.1 0.2 0 0.3 1 1.2 2.5 2 4.1 2 3 0 5.4-2.4 5.4-5.4 0-1.7-0.9-3.3-2.2-4.3z"/><path class="b" d="m9.9 16.1h-0.1q0 0.1 0 0.1 0 0.1 0 0.2c0.8 0.8 1.9 1.2 2.9 1.2 2.4 0 4.3-1.9 4.3-4.3 0-2.3-1.9-4.2-4.3-4.2q-0.6 0-1.3 0.2-0.1 0-0.1 0.1 0 0.1 0 0.2c0.1 0.1 0.2 0.2 0.3 0.1q0.6-0.2 1.1-0.2c2.1 0 3.8 1.7 3.8 3.8 0 2.1-1.7 3.8-3.8 3.8-0.9 0-1.8-0.4-2.5-1-0.1-0.1-0.3-0.1-0.3 0z"/><path class="b" d="m6.6 11.6h3.6c0.1 0 0.2-0.1 0.2-0.2 0-0.1-0.1-0.2-0.2-0.2h-3.6c-0.1 0-0.2 0.1-0.2 0.2 0 0.1 0.1 0.2 0.2 0.2z"/><path class="b" d="m3.8 12.9c0-0.2 0.1-0.2 0.2-0.2h4.6c0.1 0 0.2 0 0.2 0.2 0 0.1-0.1 0.2-0.2 0.2h-4.6c-0.1 0-0.2-0.1-0.2-0.2z"/><path class="b" d="m9.2 12.9c0-0.2 0-0.2 0.1-0.2h0.3c0.1 0 0.2 0 0.2 0.2 0 0.1-0.1 0.2-0.2 0.2h-0.3c-0.1 0-0.1-0.1-0.1-0.2z"/><path class="b" d="m8 10c0-0.1 0.1-0.2 0.2-0.2h1.2c0.1 0 0.2 0.1 0.2 0.2 0 0.1-0.1 0.2-0.2 0.2h-1.2c-0.1 0-0.2-0.1-0.2-0.2z"/><path class="b" d="m7 10c0-0.1 0.1-0.2 0.2-0.2h0.2c0.1 0 0.2 0.1 0.2 0.2 0 0.1-0.1 0.2-0.2 0.2h-0.2c-0.1 0-0.2-0.1-0.2-0.2z"/><path class="b" d="m8.5 14.3c0-0.1 0.1-0.2 0.2-0.2h1.6c0.1 0 0.2 0.1 0.2 0.2 0 0.1-0.1 0.2-0.2 0.2h-1.6c-0.1 0-0.2-0.1-0.2-0.2z"/><path class="b" d="m4.9 14.3c0-0.1 0.1-0.2 0.2-0.2h2.9c0.1 0 0.2 0.1 0.2 0.2 0 0.1-0.1 0.2-0.2 0.2h-2.9c-0.1 0-0.2-0.1-0.2-0.2z"/><path class="b" d="m5.3 15.7c0-0.1 0.1-0.2 0.2-0.2h3.5c0.1 0 0.2 0.1 0.2 0.2 0 0.1-0.1 0.2-0.2 0.2h-3.5c-0.1 0-0.2-0.1-0.2-0.2z"/><path class="b" d="m14.9 11.8l-1.9 1.1q0 0 0 0-0.1-0.1-0.2-0.1-0.1 0-0.2 0l-1.7-2.9c-0.1-0.2-0.5-0.1-0.3 0.2l1.7 2.9q-0.1 0.1-0.1 0.2c0 0.3 0.1 0.5 0.3 0.6q0.1 0.1 0.2 0.1c0.3 0 0.6-0.3 0.6-0.6q0 0 0-0.1l1.8-1.1c0.2-0.1 0-0.4-0.2-0.3z"/></g></svg>