<svg xmlns="http://www.w3.org/2000/svg" width="14.295" height="12.377" viewBox="0 0 14.295 12.377">
  <g id="Grupo_672" data-name="Grupo 672" transform="translate(-2412.784 -1687.284)">
    <g id="Grupo_671" data-name="Grupo 671">
      <path id="Caminho_1334" data-name="Caminho 1334" d="M2424.917,1690.042l.154-.214.241.174a.137.137,0,0,0,.192-.032l.257-.357a.139.139,0,0,0-.031-.192l-.977-.7a.138.138,0,0,0-.192.032l-.256.356a.138.138,0,0,0,.031.193l.241.173-.169.235a5.3,5.3,0,0,0-2.169-.687v-.585h.477a.223.223,0,0,0,.222-.222v-.708a.223.223,0,0,0-.222-.222h-1.936a.223.223,0,0,0-.222.222v.708a.223.223,0,0,0,.222.222h.478v.585a5.3,5.3,0,0,0-2.667,1.013.215.215,0,0,0-.069.264l.009.02a.216.216,0,0,0,.325.085,4.876,4.876,0,1,1-.9,7,.206.206,0,0,0-.148-.079.21.21,0,0,0-.161.051l-.016.014a.217.217,0,0,0-.027.3,5.331,5.331,0,1,0,7.31-7.645Z" fill="#fff" fill-rule="evenodd"/>
      <path id="Caminho_1335" data-name="Caminho 1335" d="M2418.861,1697.074l-.016.014a.21.21,0,0,0-.075.159.213.213,0,0,0,.067.163,4.237,4.237,0,1,0,1.6-7.113.217.217,0,0,0-.131.3l.009.02a.217.217,0,0,0,.264.116,3.784,3.784,0,1,1-1.431,6.352A.217.217,0,0,0,2418.861,1697.074Z" fill="#fff" fill-rule="evenodd"/>
      <path id="Caminho_1336" data-name="Caminho 1336" d="M2415.64,1692.621h3.517a.194.194,0,0,0,0-.389h-3.517a.194.194,0,0,0,0,.389Z" fill="#fff" fill-rule="evenodd"/>
      <rect id="Retângulo_1034" data-name="Retângulo 1034" width="5.044" height="0.389" rx="0.194" transform="translate(2412.784 1693.662)" fill="#fff"/>
      <path id="Retângulo_1035" data-name="Retângulo 1035" d="M.195,0H.43A.194.194,0,0,1,.624.194v0A.194.194,0,0,1,.43.389H.194A.194.194,0,0,1,0,.195v0A.195.195,0,0,1,.195,0Z" transform="translate(2418.153 1693.662)" fill="#fff"/>
      <path id="Retângulo_1036" data-name="Retângulo 1036" d="M.195,0H1.387a.195.195,0,0,1,.195.195v0a.194.194,0,0,1-.194.194H.194A.194.194,0,0,1,0,.195v0A.195.195,0,0,1,.195,0Z" transform="translate(2416.981 1690.801)" fill="#fff"/>
      <path id="Retângulo_1037" data-name="Retângulo 1037" d="M.195,0H.435A.195.195,0,0,1,.63.195v0A.194.194,0,0,1,.435.389H.194A.194.194,0,0,1,0,.195v0A.195.195,0,0,1,.195,0Z" transform="translate(2415.969 1690.801)" fill="#fff"/>
      <path id="Retângulo_1038" data-name="Retângulo 1038" d="M.195,0H1.751a.195.195,0,0,1,.195.195v0a.194.194,0,0,1-.194.194H.194A.194.194,0,0,1,0,.195v0A.195.195,0,0,1,.195,0Z" transform="translate(2417.524 1695.079)" fill="#fff"/>
      <path id="Retângulo_1039" data-name="Retângulo 1039" d="M.194,0H3.1A.195.195,0,0,1,3.3.195v0A.195.195,0,0,1,3.1.389H.194A.194.194,0,0,1,0,.195v0A.194.194,0,0,1,.194,0Z" transform="translate(2413.922 1695.079)" fill="#fff"/>
      <rect id="Retângulo_1040" data-name="Retângulo 1040" width="3.867" height="0.389" rx="0.195" transform="translate(2414.35 1696.495)" fill="#fff"/>
      <path id="Caminho_1337" data-name="Caminho 1337" d="M2423.86,1692.812l-1.818,1.065-.042-.025a.545.545,0,0,0-.406-.045l-1.717-2.942c-.12-.206-.474-.052-.312.223l1.723,2.946a.528.528,0,0,0-.078.2.541.541,0,0,0,.279.571l0,0h0a.54.54,0,0,0,.773-.622l1.816-1.059C2424.289,1693.005,2424.135,1692.651,2423.86,1692.812Z" fill="#fff" fill-rule="evenodd"/>
    </g>
  </g>
</svg>
